<svg width="869" height="340" xmlns="http://www.w3.org/2000/svg" xmlns:xlink="http://www.w3.org/1999/xlink" overflow="hidden"><defs><clipPath id="clip0"><rect x="0" y="0" width="869" height="340"/></clipPath></defs><g clip-path="url(#clip0)"><rect x="0" y="0" width="869" height="339.964" fill="#FFFFFF" fill-opacity="0"/><path d="M131.5 223.976C131.5 210.447 143.364 199.479 158 199.479 172.636 199.479 184.5 210.447 184.5 223.976 184.5 237.506 172.636 248.473 158 248.473 143.364 248.473 131.5 237.506 131.5 223.976Z" stroke="#000000" stroke-width="3.33206" stroke-miterlimit="8" fill="#9FB7E1" fill-rule="evenodd"/><path d="M215.5 152.484C215.5 139.23 227.364 128.486 242 128.486 256.635 128.486 268.5 139.23 268.5 152.484 268.5 165.737 256.635 176.481 242 176.481 227.364 176.481 215.5 165.737 215.5 152.484Z" stroke="#000000" stroke-width="3.33206" stroke-miterlimit="8" fill="#ED7D31" fill-rule="evenodd"/><path d="M215.5 297.968C215.5 284.439 227.364 273.471 242 273.471 256.635 273.471 268.5 284.439 268.5 297.968 268.5 311.498 256.635 322.466 242 322.466 227.364 322.466 215.5 311.498 215.5 297.968Z" stroke="#000000" stroke-width="3.33206" stroke-miterlimit="8" fill="#70AD47" fill-rule="evenodd"/><path d="M302.5 223.976C302.5 210.447 314.141 199.479 328.5 199.479 342.859 199.479 354.5 210.447 354.5 223.976 354.5 237.506 342.859 248.473 328.5 248.473 314.141 248.473 302.5 237.506 302.5 223.976Z" stroke="#000000" stroke-width="3.33206" stroke-miterlimit="8" fill="#7030A0" fill-rule="evenodd"/><path d="M0 0 46.8373 37.3277" stroke="#000000" stroke-width="3.3317" stroke-miterlimit="8" fill="none" fill-rule="evenodd" transform="matrix(1.00011 0 0 -1 176.5 206.81)"/><path d="M223.342 281.263 176.5 241.474" stroke="#000000" stroke-width="3.33206" stroke-miterlimit="8" fill="none" fill-rule="evenodd"/><path d="M0 0 0.000104935 97.1831" stroke="#000000" stroke-width="3.3317" stroke-miterlimit="8" fill="none" fill-rule="evenodd" transform="matrix(1.00011 0 0 -1 241.5 273.664)"/><path d="M0 0 49.4683 39.7887" stroke="#000000" stroke-width="3.3317" stroke-miterlimit="8" fill="none" fill-rule="evenodd" transform="matrix(1.00011 0 0 -1 260.5 281.263)"/><path d="M380.5 219.642 456.5 219.642 456.5 193.479 492.5 229.476 456.5 265.472 456.5 239.309 380.5 239.309Z" stroke="#000000" stroke-width="3.33206" stroke-miterlimit="8" fill="#BFBFBF" fill-rule="evenodd"/><path d="M514.5 264.472C514.5 251.218 526.141 240.474 540.5 240.474 554.859 240.474 566.5 251.218 566.5 264.472 566.5 277.725 554.859 288.469 540.5 288.469 526.141 288.469 514.5 277.725 514.5 264.472Z" stroke="#000000" stroke-width="3.33206" stroke-miterlimit="8" fill="#4472C4" fill-rule="evenodd"/><path d="M598.5 192.979C598.5 179.45 610.141 168.482 624.5 168.482 638.859 168.482 650.5 179.45 650.5 192.979 650.5 206.509 638.859 217.477 624.5 217.477 610.141 217.477 598.5 206.509 598.5 192.979Z" stroke="#000000" stroke-width="3.33206" stroke-miterlimit="8" fill="#ED7D31" fill-rule="evenodd"/><path d="M684.5 264.472C684.5 251.218 696.364 240.474 711 240.474 725.635 240.474 737.5 251.218 737.5 264.472 737.5 277.725 725.635 288.469 711 288.469 696.364 288.469 684.5 277.725 684.5 264.472Z" stroke="#000000" stroke-width="3.33206" stroke-miterlimit="8" fill="#AC75D5" fill-rule="evenodd"/><path d="M0 0 46.8373 37.3277" stroke="#000000" stroke-width="3.3317" stroke-miterlimit="8" fill="none" fill-rule="evenodd" transform="matrix(1.00011 0 0 -1 559.5 247.805)"/><path d="M691.974 247.805 642.5 210.478" stroke="#000000" stroke-width="3.33206" stroke-miterlimit="8" fill="none" fill-rule="evenodd"/><path d="M566.5 264.472 684.466 264.472" stroke="#000000" stroke-width="3.33206" stroke-miterlimit="8" fill="none" fill-rule="evenodd"/><path d="M143.422-31.5904C140.375-31.5904 137.871-30.4396 135.912-28.1381 134.326-26.2726 133.533-24.1424 133.533-21.7477 133.533-19.3529 134.326-17.2228 135.912-15.3573 137.84-13.0557 140.343-11.905 143.422-11.905 146.19-11.905 148.53-12.8535 150.443-14.7505 152.355-16.6475 153.312-18.9799 153.312-21.7477 153.312-24.4842 152.348-26.8088 150.419-28.7214 148.491-30.6341 146.159-31.5904 143.422-31.5904ZM204.072-31.6373C201.304-31.6373 198.964-30.6819 197.051-28.7712 195.139-26.8605 194.182-24.5115 194.182-21.7242 194.182-18.9682 195.147-16.627 197.075-14.7007 199.003-12.7744 201.335-11.8112 204.072-11.8112 207.151-11.8112 209.654-12.9701 211.582-15.2877 213.168-17.1669 213.962-19.3124 213.962-21.7242 213.962-24.1986 213.184-26.3441 211.629-28.1608 209.67-30.4784 207.151-31.6373 204.072-31.6373ZM730.641-31.8716C727.468-31.8716 724.887-30.6786 722.896-28.2926 721.279-26.3778 720.47-24.1962 720.47-21.7477 720.47-19.268 721.279-17.0707 722.896-15.1559 724.887-12.7699 727.468-11.5769 730.641-11.5769 733.471-11.5769 735.866-12.5579 737.826-14.5198 739.785-16.4818 740.765-18.8911 740.765-21.7477 740.765-24.5731 739.777-26.9667 737.802-28.9287 735.827-30.8906 733.44-31.8716 730.641-31.8716ZM443.39-32.0591C440.311-32.0591 437.792-30.8717 435.833-28.497 434.278-26.5909 433.501-24.388 433.501-21.8883 433.501-19.1073 434.457-16.7248 436.37-14.7406 438.282-12.7565 440.622-11.7644 443.39-11.7644 446.127-11.7644 448.451-12.7565 450.364-14.7406 452.277-16.7248 453.233-19.1073 453.233-21.8883 453.233-24.6692 452.284-27.0596 450.387-29.0594 448.49-31.0592 446.158-32.0591 443.39-32.0591ZM586.25-35.0119C583.639-35.0119 581.526-34.2315 579.909-32.6706 578.635-31.428 577.827-29.7556 577.485-27.6533L594.968-27.6533C593.88-32.559 590.974-35.0119 586.25-35.0119ZM363.211-43.4954 378.632-43.4954 378.632-18.8417C378.632-16.1233 379.284-14.1235 380.588-12.8424 381.986-11.4675 383.927-10.7801 386.412-10.7801 388.865-10.7801 390.791-11.4675 392.189-12.8424 393.493-14.1235 394.146-16.1233 394.146-18.8417L394.146-43.4954 409.566-43.4954 409.566-15.8889C409.566-7.79604 405.738-2.42162 398.083 0.23435 394.895 1.32798 391.005 1.8748 386.412 1.8748 377.382 1.8748 370.898-0.343713 366.961-4.78074 364.461-7.59294 363.211-11.2957 363.211-15.8889ZM794.798-44.1047C795.609-44.1047 796.606-44.058 797.79-43.9648L797.79-29.3406C795.64-30.3718 793.458-30.8873 791.246-30.8873 786.198-30.8873 782.926-28.8094 781.43-24.6536 780.869-23.1538 780.589-21.1384 780.589-18.6074L780.589 0 765.168 0 765.168-43.4954 780.589-43.4954 780.589-36.3711C782.209-38.9021 783.954-40.73 785.824-41.8549 788.348-43.3548 791.339-44.1047 794.798-44.1047ZM109.871-44.1047C110.682-44.1047 111.679-44.058 112.863-43.9648L112.863-29.3406C110.713-30.3718 108.531-30.8873 106.319-30.8873 101.271-30.8873 97.9991-28.8094 96.5032-24.6536 95.9422-23.1538 95.6617-21.1384 95.6617-18.6074L95.6617 0 80.2415 0 80.2415-43.4954 95.6617-43.4954 95.6617-36.3711C97.2821-38.9021 99.0273-40.73 100.897-41.8549 103.421-43.3548 106.412-44.1047 109.871-44.1047ZM323.184-44.1984 316.201-23.81 330.074-23.81ZM537.138-44.2453C540.393-44.2453 543.288-43.4641 545.823-41.9018 548.546-40.1832 550.33-37.8553 551.174-34.9182 551.675-33.1371 551.926-30.9186 551.926-28.2626L551.926 0 536.505 0 536.505-21.4818C536.505-25.2261 536.115-27.7846 535.334-29.1575 534.177-31.1856 532.443-32.1997 530.131-32.1997 527.569-32.1997 525.6-31.0921 524.225-28.877 523.257-27.3167 522.772-24.8516 522.772-21.4818L522.772 0 507.352 0 507.352-21.4818C507.352-25.2261 507.04-27.6599 506.415-28.7833 505.165-31.0297 503.243-32.1528 500.65-32.1528 498.244-32.1528 496.369-31.1856 495.025-29.2513 494.525-28.5648 494.166-27.621 493.947-26.4197 493.729-25.2184 493.619-23.5724 493.619-21.4818L493.619 0 478.199 0 478.199-43.4954 493.619-43.4954 493.619-38.1522C495.435-39.902 497.093-41.1831 498.596-41.9955 501.318-43.4641 504.354-44.1984 507.703-44.1984 511.991-44.1984 515.559-43.0892 518.407-40.8706 519.847-39.7458 521.224-38.1522 522.538-36.0899 523.727-38.0272 525.058-39.5583 526.529-40.6832 529.627-43.0579 533.163-44.2453 537.138-44.2453ZM647.644-44.4328C652.324-44.4328 656.13-43.1673 659.063-40.6363 662.401-37.7616 664.07-33.4496 664.07-27.7002L664.07 0 648.65 0 648.65-21.9974C648.65-25.8349 648.215-28.3776 647.345-29.6255 646.072-31.4666 644.162-32.3872 641.616-32.3872 639.287-32.3872 637.331-31.5945 635.747-30.0093 634.319-28.5792 633.604-26.3409 633.604-23.2944L633.604 0 618.184 0 618.184-43.4954 633.604-43.4954 633.604-38.0116C635.382-40.0739 637.021-41.5268 638.518-42.3705 640.952-43.7453 643.994-44.4328 647.644-44.4328ZM585.641-44.714C595.108-44.714 601.873-41.2705 605.935-34.3835 608.216-30.5021 609.357-25.9945 609.357-20.8608L609.357-18.8886 577.063-18.8886C577.063-12.3581 580.202-9.09278 586.479-9.09278 589.679-9.09278 592.134-10.4676 593.843-13.2173L608.748-13.2173C607.56-9.29247 605.81-6.25544 603.498-4.10625 599.311-0.212623 593.702 1.73419 586.672 1.73419 577.735 1.73419 571.017-0.984271 566.518-6.42119 563.143-10.4833 561.456-15.4359 561.456-21.279 561.456-28.2157 563.565-33.8558 567.783-38.1991 572.002-42.5423 577.954-44.714 585.641-44.714ZM439.471-44.714C442.622-44.714 445.431-44.0734 447.896-42.7923 449.362-42.0111 450.891-40.73 452.483-38.949L452.483-43.4954 467.903-43.4954 467.903-2.99968C467.903 0.812413 467.638 3.89021 467.106 6.23371 466.263 9.98331 464.076 13.3423 460.545 16.3108 456.076 20.0604 450.14 21.9352 442.734 21.9352 434.985 21.9352 428.814 19.8885 424.22 15.7952 421.158 13.0767 419.205 10.2333 418.362 7.26485 418.268 6.95238 418.143 6.2962 417.987 5.29631L435.235 5.29631C435.735 6.71901 436.407 7.73965 437.25 8.35824 438.625 9.37913 440.375 9.88957 442.5 9.88957 446.062 9.88957 448.796 8.62799 450.702 6.10482 451.889 4.51661 452.483 2.24292 452.483-0.716232L452.483-4.82761C450.642-3.14029 449.097-1.95292 447.849-1.26549 445.259 0.171857 442.201 0.89053 438.675 0.89053 434.243 0.89053 430.281-0.249973 426.786-2.53098 423.197-4.87448 420.623-8.07726 419.062-12.1393 418.002-14.889 417.471-17.8731 417.471-21.0915 417.471-28.2157 419.734-34.012 424.258-38.4803 428.471-42.6361 433.542-44.714 439.471-44.714ZM208.038-44.8546C213.437-44.8546 218.242-42.9974 222.455-39.2829 227.479-34.8503 229.991-28.9818 229.991-21.6774 229.991-14.248 227.417-8.31723 222.268-3.88508 218.18-0.357628 213.484 1.4061 208.179 1.4061 205.089 1.4061 202.187 0.749921 199.472-0.56244 197.912-1.31236 196.305-2.5466 194.651-4.26517L194.651 21.7477 179.231 21.7477 179.231-43.4954 194.651-43.4954 194.651-38.6209C196.024-40.4332 197.506-41.7768 199.098-42.6517 201.719-44.1203 204.699-44.8546 208.038-44.8546ZM139.316-44.8546C142.405-44.8546 145.307-44.214 148.022-42.9329 149.582-42.183 151.189-40.9488 152.843-39.2302L152.843-43.4954 168.263-43.4954 168.263 0 152.843 0 152.843-4.82761C151.376-2.98406 149.894-1.64045 148.396-0.79679 145.775 0.671804 142.795 1.4061 139.456 1.4061 134.058 1.4061 129.252-0.451124 125.039-4.16557 120.015-8.5982 117.503-14.4667 117.503-21.7711 117.503-29.2005 120.078-35.1313 125.226-39.5634 129.314-43.0909 134.011-44.8546 139.316-44.8546ZM731.11-45.0889C739.327-45.0889 745.889-42.4486 750.795-37.1679 754.795-32.8559 756.794-27.7158 756.794-21.7477 756.794-15.7171 754.81-10.5458 750.842-6.23371 746.03-0.984271 739.296 1.64045 730.641 1.64045 721.954 1.64045 715.205-0.984271 710.393-6.23371 706.425-10.5458 704.441-15.8421 704.441-22.1226 704.441-27.7783 706.44-32.7934 710.44-37.1679 715.283-42.4486 722.173-45.0889 731.11-45.0889ZM675.959-56.5721 691.379-56.5721 691.379-43.4954 700.144-43.4954 700.144-30.8873 691.379-30.8873 691.379 0 675.959 0 675.959-30.8873 670.897-30.8873 670.897-43.4954 675.959-43.4954ZM314.232-63.9776 332.371-63.9776 356.462 0 338.698 0 334.574-11.1551 311.607-11.1551 307.202 0 289.625 0ZM38.574-66.0398C46.1357-66.0398 52.5413-64.1025 57.7907-60.228 61.5403-57.4782 64.7431-53.4162 67.3991-48.0418L51.6508-41.5268C50.3032-44.5123 48.736-46.7516 46.9491-48.2446 44.3791-50.3591 41.3232-51.4164 37.7816-51.4164 30.5417-51.4164 25.4956-47.6912 22.6433-40.2408 21.5775-37.498 21.0446-34.6613 21.0446-31.731 21.0446-25.6525 22.9722-20.5869 26.8272-16.5341 29.6795-13.5105 33.4877-11.9987 38.2518-11.9987 42.4833-11.9987 45.8372-13.2276 48.3135-15.6853 49.9432-17.3033 51.0087-19.6991 51.5101-22.8726L37.8241-22.8726 37.8241-35.5275 70.8206-35.5275C70.8206-28.5907 70.0394-22.9351 68.4771-18.5605 66.1023-11.905 62.1809-6.78053 56.7127-3.18716 51.432 0.249973 45.1827 1.96854 37.9647 1.96854 26.216 1.96854 17.2013-2.03103 10.9207-10.0302 6.17122-16.092 3.79648-23.3256 3.79648-31.731 3.79648-41.0425 6.57743-48.8698 12.1393-55.2129 18.4512-62.4308 27.2627-66.0398 38.574-66.0398ZM238.225-70.3988 253.645-70.3988 253.645-38.0116C255.423-40.0739 257.061-41.5268 258.559-42.3705 261.023-43.7766 264.065-44.4796 267.685-44.4796 272.302-44.4796 276.108-43.1985 279.103-40.6363 282.441-37.7616 284.11-33.4496 284.11-27.7002L284.11 0 268.69 0 268.69-21.9974C268.69-25.8661 268.255-28.4245 267.386-29.6724 266.113-31.5135 264.203-32.434 261.657-32.434 259.297-32.434 257.34-31.6414 255.788-30.0561 254.359-28.5949 253.645-26.3409 253.645-23.2944L253.645 0 238.225 0Z" stroke="#000000" stroke-width="2.99968" stroke-linejoin="round" stroke-miterlimit="10" fill="#B4C7E7" fill-rule="evenodd" transform="matrix(1.00011 0 0 1 34.1712 88.0372)"/><text fill="#000000" fill-opacity="0" font-family="Arial,Arial_MSFontService,sans-serif" font-size="92.3339" x="3.79648" y="10.3934">GraphAugmentor</text></g></svg>