<svg width="605" height="284" xmlns="http://www.w3.org/2000/svg" xmlns:xlink="http://www.w3.org/1999/xlink" overflow="hidden"><defs><clipPath id="clip0"><rect x="0" y="0" width="605" height="284"/></clipPath></defs><g clip-path="url(#clip0)"><rect x="0" y="0" width="605" height="284.344" fill="#FFFFFF" fill-opacity="0"/><path d="M58 178.216C58 168.815 66.7305 161.195 77.5 161.195 88.2696 161.195 97 168.815 97 178.216 97 187.616 88.2696 195.236 77.5 195.236 66.7305 195.236 58 187.616 58 178.216Z" stroke="#5C5C5C" stroke-width="4.0022" stroke-miterlimit="8" fill="#9FB7E1" fill-rule="evenodd"/><path d="M126 120.646C126 110.969 134.73 103.125 145.5 103.125 156.27 103.125 165 110.969 165 120.646 165 130.323 156.27 138.167 145.5 138.167 134.73 138.167 126 130.323 126 120.646Z" stroke="#5C5C5C" stroke-width="4.0022" stroke-miterlimit="8" fill="#ED7D31" fill-rule="evenodd"/><path d="M126 239.29C126 229.889 134.73 222.269 145.5 222.269 156.27 222.269 165 229.889 165 239.29 165 248.69 156.27 256.31 145.5 256.31 134.73 256.31 126 248.69 126 239.29Z" stroke="#5C5C5C" stroke-width="4.0022" stroke-miterlimit="8" fill="#70AD47" fill-rule="evenodd"/><path d="M191 178.216C191 168.815 199.73 161.195 210.5 161.195 221.27 161.195 230 168.815 230 178.216 230 187.616 221.27 195.236 210.5 195.236 199.73 195.236 191 187.616 191 178.216Z" stroke="#5C5C5C" stroke-width="4.0022" stroke-miterlimit="8" fill="#7030A0" fill-rule="evenodd"/><path d="M0 0 40.6019 32.8214" stroke="#5C5C5C" stroke-width="4.0022" stroke-miterlimit="8" fill="none" fill-rule="evenodd" transform="matrix(1 0 0 -1.00121 91 166.022)"/><path d="M131.602 226.586 91 190.23" stroke="#5C5C5C" stroke-width="4.0022" stroke-miterlimit="8" fill="none" fill-rule="evenodd"/><path d="M0 0 0.000105045 83.4586" stroke="#5C5C5C" stroke-width="4.0022" stroke-miterlimit="8" fill="none" fill-rule="evenodd" transform="matrix(1 0 0 -1.00121 145 221.727)"/><path d="M0 0 37.5856 36.3121" stroke="#5C5C5C" stroke-width="4.0022" stroke-miterlimit="8" fill="none" fill-rule="evenodd" transform="matrix(1 0 0 -1.00121 159 226.586)"/><path d="M263.5 176.611 320.5 176.611 320.5 157.691 346.5 183.722 320.5 209.754 320.5 190.833 263.5 190.833Z" stroke="#5C5C5C" stroke-width="3.33517" stroke-miterlimit="8" fill="#BFBFBF" fill-rule="evenodd"/><path d="M372 206.75C372 197.074 380.73 189.229 391.5 189.229 402.27 189.229 411 197.074 411 206.75 411 216.427 402.27 224.271 391.5 224.271 380.73 224.271 372 216.427 372 206.75Z" stroke="#5C5C5C" stroke-width="4.0022" stroke-miterlimit="8" fill="#4472C4" fill-rule="evenodd"/><path d="M436 146.678C436 137.001 444.73 129.156 455.5 129.156 466.27 129.156 475 137.001 475 146.678 475 156.354 466.27 164.199 455.5 164.199 444.73 164.199 436 156.354 436 146.678Z" stroke="#5C5C5C" stroke-width="4.0022" stroke-miterlimit="8" fill="#ED7D31" fill-rule="evenodd"/><path d="M504 206.75C504 197.074 512.73 189.229 523.5 189.229 534.27 189.229 543 197.074 543 206.75 543 216.427 534.27 224.271 523.5 224.271 512.73 224.271 504 216.427 504 206.75Z" stroke="#5C5C5C" stroke-width="4.0022" stroke-miterlimit="8" fill="#AC75D5" fill-rule="evenodd"/><path d="M0 0 37.0065 35.3895" stroke="#5C5C5C" stroke-width="4.0022" stroke-miterlimit="8" fill="none" fill-rule="evenodd" transform="matrix(1 0 0 -1.00121 405 194.625)"/><path d="M509.668 194.625 469 159.193" stroke="#5C5C5C" stroke-width="4.0022" stroke-miterlimit="8" fill="none" fill-rule="evenodd"/><path d="M411 207.251 504.698 207.251" stroke="#5C5C5C" stroke-width="4.0022" stroke-miterlimit="8" fill="none" fill-rule="evenodd"/><path d="M95.625-21.0625C93.5931-21.0625 91.924-20.2952 90.6177-18.7607 89.5601-17.5169 89.0313-16.0967 89.0313-14.5 89.0313-12.9033 89.5601-11.4831 90.6177-10.2393 91.9032-8.70475 93.5723-7.9375 95.625-7.9375 97.4704-7.9375 99.0307-8.56991 100.306-9.83472 101.581-11.0995 102.219-12.6546 102.219-14.5 102.219-16.3245 101.576-17.8744 100.29-19.1497 99.0046-20.4249 97.4496-21.0625 95.625-21.0625ZM136.062-21.0938C134.217-21.0938 132.657-20.4568 131.382-19.1829 130.106-17.9089 129.469-16.3428 129.469-14.4844 129.469-12.6468 130.112-11.0859 131.397-9.80151 132.683-8.51717 134.238-7.875 136.062-7.875 138.115-7.875 139.784-8.64762 141.07-10.1929 142.127-11.4458 142.656-12.8763 142.656-14.4844 142.656-16.1341 142.138-17.5646 141.101-18.7759 139.795-20.3211 138.115-21.0938 136.062-21.0938ZM487.812-21.25C485.697-21.25 483.976-20.4546 482.649-18.8638 481.57-17.5871 481.031-16.1325 481.031-14.5 481.031-12.8467 481.57-11.3817 482.649-10.105 483.976-8.51416 485.697-7.71875 487.812-7.71875 489.7-7.71875 491.296-8.3728 492.603-9.68091 493.909-10.989 494.562-12.5954 494.562-14.5 494.562-16.3838 493.904-17.9797 492.587-19.2878 491.27-20.5959 489.679-21.25 487.812-21.25ZM296.625-21.375C294.572-21.375 292.893-20.5833 291.586-19 290.55-17.7292 290.031-16.2604 290.031-14.5938 290.031-12.7396 290.669-11.151 291.944-9.82812 293.219-8.50521 294.78-7.84375 296.625-7.84375 298.45-7.84375 299.999-8.50521 301.275-9.82812 302.55-11.151 303.188-12.7396 303.188-14.5938 303.188-16.4479 302.555-18.0417 301.29-19.375 300.025-20.7083 298.47-21.375 296.625-21.375ZM390.875-23.3438C389.134-23.3438 387.725-22.8234 386.647-21.7827 385.798-20.9543 385.259-19.8392 385.031-18.4375L396.688-18.4375C395.962-21.7083 394.025-23.3438 390.875-23.3438ZM242.5-29 252.781-29 252.781-12.5625C252.781-10.75 253.216-9.41667 254.086-8.5625 255.018-7.64583 256.312-7.1875 257.969-7.1875 259.604-7.1875 260.888-7.64583 261.82-8.5625 262.69-9.41667 263.125-10.75 263.125-12.5625L263.125-29 273.406-29 273.406-10.5938C273.406-5.19792 270.854-1.61458 265.75 0.15625 263.625 0.885417 261.031 1.25 257.969 1.25 251.948 1.25 247.625-0.229167 245-3.1875 243.333-5.0625 242.5-7.53125 242.5-10.5938ZM531.255-29.4062C531.796-29.4062 532.461-29.3752 533.25-29.313L533.25-19.5625C531.816-20.25 530.362-20.5937 528.887-20.5937 525.521-20.5937 523.34-19.2083 522.342-16.4375 521.968-15.4375 521.781-14.0938 521.781-12.4062L521.781 0 511.5 0 511.5-29 521.781-29 521.781-24.25C522.862-25.9375 524.025-27.1562 525.272-27.9062 526.955-28.9062 528.949-29.4062 531.255-29.4062ZM73.2554-29.4062C73.7958-29.4062 74.4606-29.3752 75.25-29.313L75.25-19.5625C73.8164-20.25 72.362-20.5937 70.8867-20.5937 67.5212-20.5937 65.3397-19.2083 64.3423-16.4375 63.9683-15.4375 63.7813-14.0938 63.7813-12.4062L63.7813 0 53.5 0 53.5-29 63.7813-29 63.7813-24.25C64.8617-25.9375 66.0252-27.1562 67.272-27.9062 68.9546-28.9062 70.9491-29.4062 73.2554-29.4062ZM215.812-29.4688 211.156-15.875 220.406-15.875ZM358.797-29.5C360.967-29.5 362.897-28.9792 364.587-27.9375 366.403-26.7917 367.592-25.2396 368.155-23.2812 368.489-22.0937 368.656-20.6146 368.656-18.8437L368.656 0 358.375 0 358.375-14.3228C358.375-16.8192 358.115-18.5251 357.594-19.4404 356.823-20.7926 355.667-21.4688 354.125-21.4688 352.417-21.4688 351.104-20.7303 350.188-19.2534 349.542-18.2131 349.219-16.5695 349.219-14.3228L349.219 0 338.938 0 338.938-14.3228C338.938-16.8192 338.729-18.4419 338.312-19.1909 337.479-20.6886 336.198-21.4375 334.469-21.4375 332.865-21.4375 331.615-20.7926 330.719-19.5029 330.385-19.0452 330.146-18.4159 330-17.615 329.854-16.814 329.781-15.7166 329.781-14.3228L329.781 0 319.5 0 319.5-29 329.781-29 329.781-25.4375C330.992-26.6042 332.098-27.4583 333.099-28 334.915-28.9792 336.939-29.4688 339.171-29.4688 342.03-29.4688 344.409-28.7292 346.308-27.25 347.268-26.5 348.186-25.4375 349.062-24.0625 349.855-25.3542 350.742-26.375 351.723-27.125 353.789-28.7083 356.147-29.5 358.797-29.5ZM432.142-29.625C435.262-29.625 437.8-28.7812 439.755-27.0937 441.981-25.1771 443.094-22.3021 443.094-18.4687L443.094 0 432.812 0 432.812-14.6665C432.812-17.2251 432.523-18.9204 431.943-19.7524 431.094-20.98 429.821-21.5938 428.123-21.5938 426.57-21.5938 425.266-21.0653 424.21-20.0083 423.257-19.0548 422.781-17.5625 422.781-15.5312L422.781 0 412.5 0 412.5-29 422.781-29 422.781-25.3437C423.967-26.7187 425.059-27.6875 426.058-28.25 427.68-29.1667 429.708-29.625 432.142-29.625ZM390.469-29.8125C396.781-29.8125 401.292-27.5166 404-22.9248 405.521-20.3369 406.281-17.3315 406.281-13.9087L406.281-12.5938 384.75-12.5938C384.75-8.23958 386.842-6.0625 391.027-6.0625 393.161-6.0625 394.798-6.97917 395.938-8.8125L405.875-8.8125C405.083-6.19564 403.917-4.17074 402.375-2.73779 399.583-0.141764 395.844 1.15625 391.156 1.15625 385.198 1.15625 380.719-0.65625 377.719-4.28125 375.469-6.98958 374.344-10.2917 374.344-14.1875 374.344-18.8125 375.75-22.5729 378.562-25.4688 381.375-28.3646 385.344-29.8125 390.469-29.8125ZM294.012-29.8125C296.113-29.8125 297.985-29.3854 299.629-28.5312 300.607-28.0104 301.626-27.1562 302.688-25.9687L302.688-29 312.969-29 312.969-2C312.969 0.541667 312.792 2.59375 312.438 4.15625 311.875 6.65625 310.417 8.89583 308.062 10.875 305.083 13.375 301.125 14.625 296.188 14.625 291.021 14.625 286.906 13.2604 283.844 10.5312 281.802 8.71875 280.5 6.82292 279.938 4.84375 279.875 4.63542 279.792 4.19792 279.688 3.53125L291.188 3.53125C291.521 4.47982 291.969 5.16032 292.531 5.57275 293.448 6.25342 294.615 6.59375 296.031 6.59375 298.406 6.59375 300.229 5.7526 301.5 4.07031 302.292 3.01139 302.688 1.49544 302.688-0.477539L302.688-3.21875C301.46-2.09375 300.43-1.30208 299.598-0.84375 297.871 0.114584 295.832 0.59375 293.481 0.59375 290.527 0.59375 287.884-0.166666 285.554-1.6875 283.162-3.25 281.445-5.38542 280.405-8.09375 279.697-9.92708 279.344-11.9167 279.344-14.0625 279.344-18.8125 280.852-22.6771 283.869-25.6562 286.678-28.4271 290.059-29.8125 294.012-29.8125ZM138.707-29.9062C142.306-29.9062 145.51-28.668 148.319-26.1914 151.669-23.236 153.344-19.3232 153.344-14.4531 153.344-9.49967 151.627-5.54541 148.194-2.59033 145.469-0.238444 142.338 0.9375 138.801 0.9375 136.741 0.9375 134.806 0.5 132.996-0.375 131.956-0.875 130.884-1.69792 129.781-2.84375L129.781 14.5 119.5 14.5 119.5-29 129.781-29 129.781-25.75C130.697-26.9583 131.685-27.8542 132.746-28.4375 134.494-29.4167 136.481-29.9062 138.707-29.9062ZM92.8872-29.9062C94.9468-29.9062 96.8817-29.4792 98.6919-28.625 99.7319-28.125 100.803-27.3021 101.906-26.1562L101.906-29 112.188-29 112.188 0 101.906 0 101.906-3.21875C100.928-1.98958 99.9401-1.09375 98.9414-0.53125 97.1937 0.447917 95.2067 0.9375 92.9805 0.9375 89.3812 0.9375 86.1771-0.300782 83.3682-2.77734 80.0186-5.73275 78.3438-9.64551 78.3438-14.5156 78.3438-19.4691 80.0602-23.4233 83.4932-26.3784 86.2188-28.7303 89.3501-29.9062 92.8872-29.9062ZM488.125-30.0625C493.604-30.0625 497.979-28.3021 501.25-24.7812 503.917-21.9062 505.25-18.4792 505.25-14.5 505.25-10.4792 503.927-7.03125 501.281-4.15625 498.073-0.65625 493.583 1.09375 487.812 1.09375 482.021 1.09375 477.521-0.65625 474.312-4.15625 471.667-7.03125 470.344-10.5625 470.344-14.75 470.344-18.5208 471.677-21.8646 474.344-24.7812 477.573-28.3021 482.167-30.0625 488.125-30.0625ZM451.688-37.7188 461.969-37.7188 461.969-29 467.812-29 467.812-20.5937 461.969-20.5937 461.969 0 451.688 0 451.688-20.5937 448.312-20.5937 448.312-29 451.688-29ZM209.844-42.6562 221.938-42.6562 238 0 226.156 0 223.406-7.4375 208.094-7.4375 205.156 0 193.438 0ZM25.7188-44.0312C30.7604-44.0312 35.0313-42.7396 38.5313-40.1562 41.0313-38.3229 43.1667-35.6146 44.9375-32.0312L34.4375-27.6875C33.5391-29.6781 32.4941-31.1711 31.3027-32.1665 29.5892-33.5763 27.5518-34.2812 25.1904-34.2812 20.3633-34.2812 16.9989-31.7975 15.0972-26.8301 14.3866-25.0013 14.0313-23.11 14.0313-21.1562 14.0313-17.1035 15.3164-13.7261 17.8867-11.0239 19.7884-9.00798 22.3275-8 25.5039-8 28.3252-8 30.5614-8.81934 32.2124-10.458 33.299-11.5368 34.0094-13.1341 34.3438-15.25L25.2188-15.25 25.2188-23.6875 47.2188-23.6875C47.2188-19.0625 46.6979-15.2917 45.6563-12.375 44.0729-7.9375 41.4583-4.52083 37.8125-2.125 34.2917 0.166666 30.125 1.3125 25.3125 1.3125 17.4792 1.3125 11.4688-1.35417 7.28126-6.6875 4.11459-10.7292 2.53126-15.5521 2.53126-21.1562 2.53126-27.3646 4.38543-32.5833 8.09376-36.8125 12.3021-41.625 18.1771-44.0312 25.7188-44.0312ZM159.5-46.9375 169.781-46.9375 169.781-25.3437C170.967-26.7187 172.059-27.6875 173.058-28.25 174.701-29.1875 176.729-29.6562 179.142-29.6562 182.221-29.6562 184.758-28.8021 186.755-27.0937 188.981-25.1771 190.094-22.3021 190.094-18.4687L190.094 0 179.813 0 179.813-14.6665C179.813-17.2459 179.523-18.9517 178.943-19.7837 178.094-21.0112 176.821-21.625 175.123-21.625 173.549-21.625 172.245-21.0965 171.21-20.0395 170.257-19.0653 169.781-17.5625 169.781-15.5312L169.781 0 159.5 0Z" stroke="#000000" stroke-width="3" stroke-linejoin="round" stroke-miterlimit="10" fill="#B4C7E7" fill-rule="evenodd" transform="matrix(1 0 0 1.00121 37.1171 70.8384)"/><text fill="#000000" fill-opacity="0" font-family="Arial,Arial_MSFontService,sans-serif" font-size="61.5625" x="2.53126" y="6.92969">GraphAugmentor</text></g></svg>