<svg width="718" height="284" xmlns="http://www.w3.org/2000/svg" xmlns:xlink="http://www.w3.org/1999/xlink" overflow="hidden"><defs><clipPath id="clip0"><rect x="0" y="0" width="718" height="284"/></clipPath></defs><g clip-path="url(#clip0)"><rect x="0" y="0" width="718" height="283.565" fill="#FFFFFF" fill-opacity="0"/><path d="M115 190.88C115 181.196 123.507 173.345 134 173.345 144.493 173.345 153 181.196 153 190.88 153 200.565 144.493 208.415 134 208.415 123.507 208.415 115 200.565 115 190.88Z" stroke="#7F7F7F" stroke-width="3.99907" stroke-miterlimit="8" fill="#9FB7E1" fill-rule="evenodd"/><path d="M183 133.766C183 124.082 191.507 116.232 202 116.232 212.493 116.232 221 124.082 221 133.766 221 143.451 212.493 151.301 202 151.301 191.507 151.301 183 143.451 183 133.766Z" stroke="#7F7F7F" stroke-width="3.99907" stroke-miterlimit="8" fill="#ED7D31" fill-rule="evenodd"/><path d="M183 252.002C183 242.318 191.507 234.467 202 234.467 212.493 234.467 221 242.318 221 252.002 221 261.686 212.493 269.537 202 269.537 191.507 269.537 183 261.686 183 252.002Z" stroke="#7F7F7F" stroke-width="3.99907" stroke-miterlimit="8" fill="#70AD47" fill-rule="evenodd"/><path d="M248 190.88C248 181.196 256.507 173.345 267 173.345 277.493 173.345 286 181.196 286 190.88 286 200.565 277.493 208.415 267 208.415 256.507 208.415 248 200.565 248 190.88Z" stroke="#7F7F7F" stroke-width="3.99907" stroke-miterlimit="8" fill="#7030A0" fill-rule="evenodd"/><path d="M0 0 40.5701 32.7957" stroke="#7F7F7F" stroke-width="3.99907" stroke-miterlimit="8" fill="none" fill-rule="evenodd" transform="matrix(1 0 0 -1.002 148 179.153)"/><path d="M188.57 239.761 148 203.405" stroke="#7F7F7F" stroke-width="3.99907" stroke-miterlimit="8" fill="none" fill-rule="evenodd"/><path d="M0 0 0.000104963 83.3932" stroke="#7F7F7F" stroke-width="3.99907" stroke-miterlimit="8" fill="none" fill-rule="evenodd" transform="matrix(1 0 0 -1.002 202 234.861)"/><path d="M0 0 37.5562 36.2836" stroke="#7F7F7F" stroke-width="3.99907" stroke-miterlimit="8" fill="none" fill-rule="evenodd" transform="matrix(1 0 0 -1.002 216 239.761)"/><path d="M319.5 189.411 377 189.411 377 170.84 402.5 196.391 377 221.942 377 203.371 319.5 203.371Z" stroke="#7F7F7F" stroke-width="3.33256" stroke-miterlimit="8" fill="#BFBFBF" fill-rule="evenodd"/><path d="M428 219.437C428 210.03 436.73 202.403 447.5 202.403 458.27 202.403 467 210.03 467 219.437 467 228.845 458.27 236.471 447.5 236.471 436.73 236.471 428 228.845 428 219.437Z" stroke="#7F7F7F" stroke-width="3.99907" stroke-miterlimit="8" fill="#4472C4" fill-rule="evenodd"/><path d="M493 159.818C493 150.134 501.507 142.283 512 142.283 522.493 142.283 531 150.134 531 159.818 531 169.503 522.493 177.353 512 177.353 501.507 177.353 493 169.503 493 159.818Z" stroke="#7F7F7F" stroke-width="3.99907" stroke-miterlimit="8" fill="#ED7D31" fill-rule="evenodd"/><path d="M561 219.437C561 210.03 569.507 202.403 580 202.403 590.493 202.403 599 210.03 599 219.437 599 228.845 590.493 236.471 580 236.471 569.507 236.471 561 228.845 561 219.437Z" stroke="#7F7F7F" stroke-width="3.99907" stroke-miterlimit="8" fill="#AC75D5" fill-rule="evenodd"/><path d="M0 0 36.9776 35.3618" stroke="#7F7F7F" stroke-width="3.99907" stroke-miterlimit="8" fill="none" fill-rule="evenodd" transform="matrix(1 0 0 -1.002 461 206.774)"/><path d="M566.636 206.774 526 171.341" stroke="#7F7F7F" stroke-width="3.99907" stroke-miterlimit="8" fill="none" fill-rule="evenodd"/><path d="M467 219.437 560.624 219.437" stroke="#7F7F7F" stroke-width="3.99907" stroke-miterlimit="8" fill="none" fill-rule="evenodd"/><path d="M119.531-26.3281C116.991-26.3281 114.905-25.3691 113.272-23.4509 111.95-21.8962 111.289-20.1208 111.289-18.125 111.289-16.1292 111.95-14.3538 113.272-12.7991 114.879-10.8809 116.965-9.92188 119.531-9.92188 121.838-9.92188 123.788-10.7124 125.382-12.2934 126.976-13.8744 127.773-15.8183 127.773-18.125 127.773-20.4057 126.97-22.343 125.363-23.9371 123.756-25.5311 121.812-26.3281 119.531-26.3281ZM170.078-26.3672C167.771-26.3672 165.821-25.571 164.227-23.9786 162.633-22.3862 161.836-20.4285 161.836-18.1055 161.836-15.8085 162.639-13.8573 164.247-12.2519 165.854-10.6465 167.797-9.84375 170.078-9.84375 172.644-9.84375 174.73-10.8095 176.337-12.7411 177.659-14.3073 178.32-16.0954 178.32-18.1055 178.32-20.1676 177.672-21.9558 176.376-23.4698 174.743-25.4014 172.644-26.3672 170.078-26.3672ZM608.766-26.5625C606.122-26.5625 603.97-25.5682 602.311-23.5797 600.963-21.9838 600.289-20.1656 600.289-18.125 600.289-16.0583 600.963-14.2271 602.311-12.6312 603.97-10.6427 606.122-9.64844 608.766-9.64844 611.124-9.64844 613.12-10.466 614.753-12.1011 616.387-13.7363 617.203-15.7442 617.203-18.125 617.203-20.4797 616.38-22.4747 614.734-24.1098 613.088-25.7449 611.098-26.5625 608.766-26.5625ZM369.531-26.7188C366.965-26.7188 364.866-25.7292 363.233-23.75 361.937-22.1615 361.289-20.3255 361.289-18.2422 361.289-15.9245 362.086-13.9388 363.68-12.2852 365.274-10.6315 367.225-9.80469 369.531-9.80469 371.812-9.80469 373.749-10.6315 375.343-12.2852 376.937-13.9388 377.734-15.9245 377.734-18.2422 377.734-20.5599 376.944-22.5521 375.363-24.2187 373.782-25.8854 371.838-26.7188 369.531-26.7188ZM488.594-29.1797C486.418-29.1797 484.657-28.5293 483.309-27.2284 482.247-26.1928 481.574-24.799 481.289-23.0469L495.859-23.0469C494.953-27.1354 492.531-29.1797 488.594-29.1797ZM302.375-36.25 315.227-36.25 315.227-15.7031C315.227-13.4375 315.77-11.7708 316.857-10.7031 318.022-9.55729 319.64-8.98438 321.711-8.98438 323.756-8.98438 325.36-9.55729 326.525-10.7031 327.613-11.7708 328.156-13.4375 328.156-15.7031L328.156-36.25 341.008-36.25 341.008-13.2422C341.008-6.4974 337.818-2.01823 331.438 0.195312 328.781 1.10677 325.539 1.5625 321.711 1.5625 314.185 1.5625 308.781-0.286458 305.5-3.98437 303.417-6.32812 302.375-9.41406 302.375-13.2422ZM663.069-36.7578C663.745-36.7578 664.576-36.719 665.562-36.6412L665.562-24.4531C663.771-25.3125 661.952-25.7422 660.108-25.7422 655.901-25.7422 653.175-24.0104 651.928-20.5469 651.46-19.2969 651.227-17.6172 651.227-15.5078L651.227 0 638.375 0 638.375-36.25 651.227-36.25 651.227-30.3125C652.577-32.4219 654.031-33.9453 655.59-34.8828 657.693-36.1328 660.186-36.7578 663.069-36.7578ZM91.0692-36.7578C91.7447-36.7578 92.5758-36.719 93.5625-36.6412L93.5625-24.4531C91.7705-25.3125 89.9525-25.7422 88.1084-25.7422 83.9015-25.7422 81.1746-24.0104 79.9279-20.5469 79.4603-19.2969 79.2266-17.6172 79.2266-15.5078L79.2266 0 66.375 0 66.375-36.25 79.2266-36.25 79.2266-30.3125C80.5771-32.4219 82.0316-33.9453 83.59-34.8828 85.6932-36.1328 88.1863-36.7578 91.0692-36.7578ZM269.516-36.8359 263.695-19.8438 275.258-19.8438ZM448.496-36.875C451.208-36.875 453.621-36.224 455.734-34.9219 458.004-33.4896 459.49-31.5495 460.194-29.1016 460.612-27.6172 460.82-25.7682 460.82-23.5547L460.82 0 447.969 0 447.969-17.9034C447.969-21.024 447.643-23.1563 446.992-24.3005 446.029-25.9908 444.583-26.8359 442.656-26.8359 440.521-26.8359 438.88-25.9129 437.734-24.0668 436.927-22.7663 436.523-20.7119 436.523-17.9034L436.523 0 423.672 0 423.672-17.9034C423.672-21.024 423.411-23.0524 422.891-23.9886 421.849-25.8608 420.247-26.7969 418.086-26.7969 416.081-26.7969 414.518-25.9908 413.398-24.3787 412.982-23.8066 412.682-23.0199 412.5-22.0187 412.318-21.0176 412.227-19.6458 412.227-17.9034L412.227 0 399.375 0 399.375-36.25 412.227-36.25 412.227-31.7969C413.739-33.2552 415.122-34.3229 416.374-35 418.643-36.224 421.173-36.8359 423.964-36.8359 427.538-36.8359 430.511-35.9115 432.885-34.0625 434.085-33.125 435.233-31.7969 436.328-30.0781 437.319-31.6927 438.428-32.9688 439.654-33.9062 442.236-35.8854 445.184-36.875 448.496-36.875ZM539.928-37.0312C543.828-37.0312 547-35.9766 549.444-33.8672 552.226-31.4714 553.617-27.8776 553.617-23.0859L553.617 0 540.766 0 540.766-18.3331C540.766-21.5314 540.403-23.6505 539.679-24.6906 538.617-26.225 537.026-26.9922 534.904-26.9922 532.963-26.9922 531.332-26.3316 530.012-25.0104 528.822-23.8186 528.227-21.9531 528.227-19.4141L528.227 0 515.375 0 515.375-36.25 528.227-36.25 528.227-31.6797C529.708-33.3984 531.074-34.6094 532.322-35.3125 534.35-36.4583 536.885-37.0312 539.928-37.0312ZM488.086-37.2656C495.977-37.2656 501.615-34.3958 505-28.656 506.901-25.4211 507.852-21.6644 507.852-17.3859L507.852-15.7422 480.938-15.7422C480.938-10.2995 483.553-7.57812 488.784-7.57812 491.452-7.57812 493.498-8.72396 494.922-11.0156L507.344-11.0156C506.354-7.74455 504.896-5.21342 502.969-3.42224 499.479-0.177205 494.805 1.44531 488.945 1.44531 481.497 1.44531 475.898-0.820313 472.148-5.35156 469.336-8.73698 467.93-12.8646 467.93-17.7344 467.93-23.5156 469.688-28.2161 473.203-31.8359 476.719-35.4557 481.68-37.2656 488.086-37.2656ZM366.265-37.2656C368.891-37.2656 371.232-36.7318 373.286-35.6641 374.508-35.013 375.783-33.9453 377.109-32.4609L377.109-36.25 389.961-36.25 389.961-2.5C389.961 0.677083 389.74 3.24219 389.297 5.19531 388.594 8.32031 386.771 11.1198 383.828 13.5938 380.104 16.7188 375.156 18.2812 368.984 18.2812 362.526 18.2812 357.383 16.5755 353.555 13.1641 351.003 10.8984 349.375 8.52865 348.672 6.05469 348.594 5.79427 348.49 5.2474 348.359 4.41406L362.734 4.41406C363.151 5.59977 363.711 6.4504 364.414 6.96594 365.56 7.81677 367.018 8.24219 368.789 8.24219 371.758 8.24219 374.036 7.19076 375.625 5.08789 376.615 3.76424 377.109 1.8693 377.109-0.596924L377.109-4.02344C375.575-2.61719 374.288-1.6276 373.247-1.05469 371.089 0.14323 368.54 0.742188 365.601 0.742188 361.908 0.742188 358.605-0.208333 355.693-2.10937 352.702-4.0625 350.556-6.73177 349.256-10.1172 348.372-12.4089 347.93-14.8958 347.93-17.5781 347.93-23.5156 349.815-28.3464 353.586-32.0703 357.097-35.5339 361.323-37.2656 366.265-37.2656ZM173.384-37.3828C177.883-37.3828 181.888-35.835 185.399-32.7393 189.586-29.045 191.68-24.1541 191.68-18.0664 191.68-11.8746 189.534-6.93176 185.243-3.23791 181.836-0.298055 177.922 1.17187 173.501 1.17187 170.926 1.17187 168.507 0.625 166.245-0.46875 164.944-1.09375 163.605-2.1224 162.227-3.55469L162.227 18.125 149.375 18.125 149.375-36.25 162.227-36.25 162.227-32.1875C163.371-33.6979 164.606-34.8177 165.933-35.5469 168.117-36.7708 170.601-37.3828 173.384-37.3828ZM116.109-37.3828C118.683-37.3828 121.102-36.849 123.365-35.7812 124.665-35.1562 126.004-34.1276 127.383-32.6953L127.383-36.25 140.234-36.25 140.234 0 127.383 0 127.383-4.02344C126.16-2.48698 124.925-1.36719 123.677-0.664062 121.492 0.559896 119.008 1.17187 116.226 1.17187 111.726 1.17187 107.721-0.375977 104.21-3.47168 100.023-7.16593 97.9297-12.0569 97.9297-18.1445 97.9297-24.3363 100.075-29.2792 104.366-32.973 107.773-35.9129 111.688-37.3828 116.109-37.3828ZM609.156-37.5781C616.005-37.5781 621.474-35.3776 625.562-30.9766 628.896-27.3828 630.562-23.099 630.562-18.125 630.562-13.099 628.909-8.78906 625.602-5.19531 621.591-0.820313 615.979 1.36719 608.766 1.36719 601.526 1.36719 595.901-0.820313 591.891-5.19531 588.583-8.78906 586.93-13.2031 586.93-18.4375 586.93-23.151 588.596-27.3307 591.93-30.9766 595.966-35.3776 601.708-37.5781 609.156-37.5781ZM563.859-47.1484 576.711-47.1484 576.711-36.25 584.016-36.25 584.016-25.7422 576.711-25.7422 576.711 0 563.859 0 563.859-25.7422 559.641-25.7422 559.641-36.25 563.859-36.25ZM262.055-53.3203 277.172-53.3203 297.25 0 282.445 0 279.008-9.29688 259.867-9.29688 256.195 0 241.547 0ZM32.1484-55.0391C38.4505-55.0391 43.7891-53.4245 48.1641-50.1953 51.2891-47.9036 53.9583-44.5182 56.1719-40.0391L43.0469-34.6094C41.9238-37.0976 40.6177-38.9638 39.1284-40.2081 36.9865-41.9704 34.4397-42.8516 31.488-42.8516 25.4541-42.8516 21.2486-39.7469 18.8715-33.5376 17.9832-31.2516 17.5391-28.8875 17.5391-26.4453 17.5391-21.3794 19.1455-17.1576 22.3584-13.7799 24.7355-11.26 27.9093-10 31.8799-10 35.4065-10 38.2017-11.0242 40.2655-13.0725 41.6238-14.421 42.5118-16.4176 42.9297-19.0625L31.5234-19.0625 31.5234-29.6094 59.0234-29.6094C59.0234-23.8281 58.3724-19.1146 57.0703-15.4688 55.0912-9.92188 51.8229-5.65104 47.2656-2.65625 42.8646 0.208333 37.6563 1.64062 31.6406 1.64062 21.849 1.64062 14.3359-1.69271 9.10157-8.35937 5.14324-13.4115 3.16407-19.4401 3.16407-26.4453 3.16407-34.2057 5.48178-40.7292 10.1172-46.0156 15.3776-52.0312 22.7214-55.0391 32.1484-55.0391ZM198.375-58.6719 211.227-58.6719 211.227-31.6797C212.709-33.3984 214.074-34.6094 215.322-35.3125 217.376-36.4844 219.911-37.0703 222.928-37.0703 226.776-37.0703 229.948-36.0026 232.444-33.8672 235.226-31.4714 236.617-27.8776 236.617-23.0859L236.617 0 223.766 0 223.766-18.3331C223.766-21.5574 223.403-23.6896 222.679-24.7296 221.617-26.264 220.026-27.0312 217.904-27.0312 215.937-27.0312 214.306-26.3706 213.012-25.0494 211.822-23.8316 211.227-21.9531 211.227-19.4141L211.227 0 198.375 0Z" stroke="#000000" stroke-width="3" stroke-linejoin="round" stroke-miterlimit="10" fill="#B4C7E7" fill-rule="evenodd" transform="matrix(1 0 0 1.002 22.5716 76.5274)"/><text fill="#000000" fill-opacity="0" font-family="Arial,Arial_MSFontService,sans-serif" font-size="76.9531" x="3.16407" y="8.66211">GraphAugmentor</text></g></svg>